<svg id="Layer_1_copy" data-name="Layer 1 copy" xmlns="http://www.w3.org/2000/svg" viewBox="0 0 70 70"><defs><style>.cls-1{fill:#d61706;}</style></defs><title>icon2</title><path class="cls-1" d="M34.66.47a34,34,0,1,0,34,34A34,34,0,0,0,34.66.47ZM53,29a5.51,5.51,0,0,1-4.31,5.35L37.92,36.77a1.83,1.83,0,0,0-1.43,1.79v2.57A1.83,1.83,0,0,1,38.32,43v11a1.83,1.83,0,0,1-1.83,1.83H32.83A1.83,1.83,0,0,1,31,53.94V43a1.83,1.83,0,0,1,1.83-1.83V38.56a5.49,5.49,0,0,1,4.3-5.34l10.75-2.38A1.84,1.84,0,0,0,49.31,29v-.73a1.83,1.83,0,0,0-1.84-1.83,3.66,3.66,0,0,1-3.66,3.66H20a3.66,3.66,0,0,1-3.66-3.66V22.82A3.66,3.66,0,0,1,20,19.16H43.81a3.66,3.66,0,0,1,3.66,3.66A5.49,5.49,0,0,1,53,28.31Z"/></svg>