<svg id="Layer_1_copy_2" data-name="Layer 1 copy 2" xmlns="http://www.w3.org/2000/svg" viewBox="0 0 70 70"><defs><style>.cls-1{fill:#d61706;}.cls-2{fill:#fff;}</style></defs><title>icon3</title><path class="cls-1" d="M34.83.58a34,34,0,1,0,34,34A34,34,0,0,0,34.83.58Z"/><path class="cls-2" d="M55,22.25a2,2,0,0,0-2-2H25.68v-2a2,2,0,0,0-2-2H17.8a2,2,0,1,0,0,3.94h3.94V38.23a5.9,5.9,0,0,0,.58,11.3,3.93,3.93,0,0,0-.07,4.09A3.9,3.9,0,1,0,29,49.75H39.9a3.82,3.82,0,0,0,0,3.94,3.9,3.9,0,1,0,6.78-3.87h.52a2,2,0,0,0,0-3.94H23.71a2,2,0,1,1,0-3.93H47.27A2,2,0,0,0,47.41,38L54.85,23.2A3.38,3.38,0,0,0,55,22.25Zm-8.24,2a2,2,0,0,1,2,2,2.08,2.08,0,0,1-.22.88l-1.1,2.11c-.07,0-.14-.07-.21-.07H25.68V24.22ZM25.68,33.05H45.52L43,37.93H25.68Z"/></svg>