<?xml version="1.0" encoding="utf-8"?>
<!-- Generator: Adobe Illustrator 23.1.1, SVG Export Plug-In . SVG Version: 6.00 Build 0)  -->
<svg version="1.1" id="Layer_1" xmlns="http://www.w3.org/2000/svg" xmlns:xlink="http://www.w3.org/1999/xlink" x="0px" y="0px"
	 viewBox="0 0 232 71" style="enable-background:new 0 0 232 71;" xml:space="preserve">
<style type="text/css">
	.st0{fill:none;}
	.st1{enable-background:new    ;}
	.st2{fill:#FFFFFF;}
</style>
<rect x="1.31" y="4.92" class="st0" width="243.27" height="32.58"/>
<g class="st1">
	<path class="st2" d="M12.13,11.89v3.57h10.46v6.93H12.13v11.28H3.77V4.96h0.04h8.32h10.46v6.93H12.13z"/>
	<path class="st2" d="M35.09,4.96v17.71c0,0-0.37,4.02,3.85,4.02c4.18,0,3.81-3.61,3.81-3.61V4.96h8.36v18.45
		c0,5-3.03,10.46-11.73,10.46c-8.41,0-12.71-4.55-12.71-11.07l0.04-17.83H35.09z"/>
	<path class="st2" d="M70.76,33.66l-5.29-10.46H64v10.46h-8.36V4.96h8.28h5.9c0,0,8.45,0,8.45,9.14c0,4.67-2.21,6.97-4.39,8.08
		l5.82,11.48H70.76z M64,16.28h4.02c0,0,1.84,0,1.84-2.26c0-2.13-1.84-2.13-1.84-2.13H64V16.28z"/>
	<path class="st2" d="M83.63,4.31l17.55,13.08L101.14,5h8.04v29.03L91.1,20.58v13.08h-7.46V4.31z"/>
	<path class="st2" d="M122.5,33.66h-8.36V4.96h8.36V33.66z"/>
	<path class="st2" d="M146.61,11.89h-6.27v21.77h-8.36V11.89h-6.23V4.96h6.23h8.36h6.27V11.89z"/>
	<path class="st2" d="M157.88,4.96v17.71c0,0-0.37,4.02,3.85,4.02c4.18,0,3.81-3.61,3.81-3.61V4.96h8.36v18.45
		c0,5-3.03,10.46-11.73,10.46c-8.41,0-12.71-4.55-12.71-11.07l0.04-17.83H157.88z"/>
	<path class="st2" d="M193.56,33.66l-5.29-10.46h-1.48v10.46h-8.36V4.96h8.28h5.9c0,0,8.45,0,8.45,9.14c0,4.67-2.21,6.97-4.39,8.08
		l5.82,11.48H193.56z M186.79,16.28h4.02c0,0,1.84,0,1.84-2.26c0-2.13-1.84-2.13-1.84-2.13h-4.02V16.28z"/>
	<path class="st2" d="M214.83,11.89v3.57h10.78v6.93h-10.78v4.35h10.78v6.93h-10.78h-8.32h-0.04V4.96h0.04h8.32h10.78v6.93H214.83z"
		/>
</g>
<g class="st1">
	<path class="st2" d="M115.12,47.06c0,0-1.56-2.71-3.81-2.71c-1.31-0.04-2.17,0.74-2.21,2.09c0,1.39,1.31,1.84,2.34,2.21
		c2.95,1.07,9.27,2.99,9.27,9.55c0,6.48-4.88,9.18-9.35,9.18c-6.56,0-9.84-5.82-9.84-5.82l5.25-3.12c0.98,1.31,2.91,2.38,4.51,2.38
		c1.27,0,2.21-0.9,2.21-2.01c0-1.56-1.8-2.09-3.32-2.62c-2.5-0.86-7.83-2.75-7.83-9.8c0-4.55,4.1-8.49,9.02-8.49
		c7.13,0,9.35,6.56,9.35,6.56L115.12,47.06z"/>
	<path class="st2" d="M143.33,45.25h-6.27v21.77h-8.36V45.25h-6.23v-6.93h6.23h8.36h6.27V45.25z"/>
	<path class="st2" d="M174.69,52.63c0,8.12-6.6,14.76-14.76,14.76s-14.76-6.64-14.76-14.76c0-8.16,6.6-14.76,14.76-14.76
		S174.69,44.47,174.69,52.63z M166.29,52.63c0-3.81-2.99-6.76-6.36-6.76c-3.36,0-6.35,2.95-6.35,6.76c0,4.02,2.99,6.72,6.35,6.72
		C163.29,59.36,166.29,56.65,166.29,52.63z"/>
	<path class="st2" d="M193.35,67.02l-5.29-10.46h-1.48v10.46h-8.36v-28.7h8.28h5.9c0,0,8.45,0,8.45,9.14c0,4.67-2.21,6.97-4.39,8.08
		l5.82,11.48H193.35z M186.58,49.64h4.02c0,0,1.84,0,1.84-2.26c0-2.13-1.84-2.13-1.84-2.13h-4.02V49.64z"/>
	<path class="st2" d="M214.63,45.25v3.57h10.78v6.93h-10.78v4.35h10.78v6.93h-10.78h-8.32h-0.04v-28.7h0.04h8.32h10.78v6.93H214.63z
		"/>
</g>
<rect x="4" y="39.5" class="st2" width="8" height="28"/>
<rect x="4" y="39.5" class="st2" width="92" height="8"/>
<rect x="88" y="39.5" class="st2" width="8" height="28"/>
</svg>
